<?xml version="1.0" encoding="UTF-8"?>
<svg width="50px" height="50px" viewBox="0 0 50 50" version="1.1" xmlns="http://www.w3.org/2000/svg" xmlns:xlink="http://www.w3.org/1999/xlink">
    <!-- Generator: Sketch 51 (57462) - http://www.bohemiancoding.com/sketch -->
    <title>Mobile</title>
    <desc>Created with Sketch.</desc>
    <defs></defs>
    <g id="Mobile" stroke="none" stroke-width="1" fill="none" fill-rule="evenodd">
        <g id="noun_Cake_221687" transform="translate(2.000000, 0.000000)" fill="#FFFFFF">
            <g id="Group">
                <path d="M3.91666667,32.0013265 C1.76376381,32.0013265 0,33.8393878 0,36.0829592 L0,48.3278571 C5.40675324e-05,48.8913897 0.438410246,49.348209 0.979166667,49.3482653 L46.0208333,49.3482653 C46.5615898,49.348209 46.9999459,48.8913897 47,48.3278571 L47,36.0829592 C47,33.8393878 45.2362369,32.0013265 43.0833333,32.0013265 L3.91666667,32.0013265 Z M3.91666667,34.0421429 L43.0833333,34.0421429 C44.1851994,34.0421429 45.0416667,34.9346939 45.0416667,36.0829592 L45.0416667,47.307449 L1.95833333,47.307449 L1.95833333,36.0829592 C1.95833333,34.9346939 2.81480072,34.0421429 3.91666667,34.0421429 Z" id="Shape" fill-rule="nonzero"></path>
                <path d="M6.85416667,19.7564286 C5.24372371,19.7564286 3.91666667,21.1393878 3.91666667,22.8176531 L3.91666667,33.0217347 C3.91672073,33.5852672 4.35507691,34.0420865 4.89583333,34.0421429 L42.1041667,34.0421429 C42.6449231,34.0420865 43.0832793,33.5852672 43.0833333,33.0217347 L43.0833333,22.8176531 C43.0833333,21.1393878 41.7562766,19.7564286 40.1458333,19.7564286 L6.85416667,19.7564286 Z M6.85416667,21.7972449 L40.1458333,21.7972449 C40.705243,21.7972449 41.125,22.2346939 41.125,22.8176531 L41.125,32.0013265 L5.875,32.0013265 L5.875,22.8176531 C5.875,22.2346939 6.29475749,21.7972449 6.85416667,21.7972449 Z" id="Shape" fill-rule="nonzero"></path>
                <path d="M20.5625,8.53193878 C20.0217436,8.53199512 19.5833874,8.98881441 19.5833333,9.55234694 L19.5833333,20.7768367 C19.5833874,21.3403693 20.0217436,21.7971886 20.5625,21.7972449 L26.4375,21.7972449 C26.9782564,21.7971886 27.4166126,21.3403693 27.4166667,20.7768367 L27.4166667,9.55234694 C27.4166126,8.98881441 26.9782564,8.53199512 26.4375,8.53193878 L20.5625,8.53193878 Z M21.5416667,10.5727551 L25.4583333,10.5727551 L25.4583333,19.7564286 L21.5416667,19.7564286 L21.5416667,10.5727551 Z" id="Shape" fill-rule="nonzero"></path>
                <path d="M23.5057369,0.368673469 C23.1975305,0.372764811 22.9091593,0.527839486 22.7273768,0.787244898 C22.7273768,0.787244898 22.672896,0.881122449 22.6700074,0.885204082 L22.6680491,0.885204082 C22.6668741,0.885204082 22.667254,0.885204082 22.6660907,0.895408163 C22.6084962,0.978061224 22.099401,1.70632653 21.5683529,2.74887755 C21.0080483,3.84887755 20.3699508,5.15428571 20.6178729,6.57744898 C20.7336113,7.24183673 21.0000827,7.91581633 21.4612565,8.49265306 C21.9224293,9.0694898 22.6469608,9.55887755 23.519036,9.55887755 C25.1140662,9.55887755 26.4259811,8.29377551 26.4374119,6.70897959 C26.4423077,6.02938776 26.2057391,5.49581633 25.9478285,4.96112245 C25.689918,4.42642857 25.3794409,3.90316327 25.1044449,3.4144898 C24.8294479,2.92591837 24.5916964,2.46653061 24.4809909,2.15102041 C24.3702863,1.83540816 24.439905,1.77193878 24.3700699,1.89989796 C24.543518,1.58188256 24.5403704,1.19144737 24.3618197,0.876513763 C24.1832689,0.561580154 23.8566279,0.370323593 23.5056488,0.375204082 L23.5057369,0.368673469 Z M23.2054853,4.00989796 C23.281498,4.15020408 23.3360317,4.30193878 23.4139401,4.44040816 C23.7028216,4.95367347 23.9960586,5.45255102 24.1980391,5.87132653 C24.4000187,6.29010204 24.4795201,6.63928571 24.4791667,6.68846939 C24.4770125,6.98530612 24.0655314,7.51153061 23.5191241,7.51153061 C23.3204815,7.51153061 23.1637248,7.42785714 22.9664305,7.18071429 C22.7691363,6.93397959 22.6008763,6.53591837 22.543783,6.20816327 C22.4891945,5.89479592 22.8163214,4.88428571 23.2054853,4.00989796 Z" id="Shape" fill-rule="nonzero"></path>
                <path d="M4.88244626,23.8380612 C3.95304525,23.8492857 3.64716583,25.077449 4.38412974,25.6676531 C4.38412974,25.6676531 5.23592572,26.4465306 6.44681806,27.2361224 C7.65771029,28.0257143 9.0715077,28.8976531 10.5375165,28.940102 C12.1198234,28.9870408 13.322148,28.0254082 14.3662109,27.2520408 C15.4102738,26.4787755 16.3053125,25.8888776 17.0321449,25.8888776 C17.7682766,25.8888776 18.6625955,26.4654082 19.7038169,27.2281633 C20.7450372,27.9909184 21.9338043,28.940102 23.5,28.940102 C25.0661957,28.940102 26.2549618,27.9909184 27.2961831,27.2281633 C28.3374045,26.4654082 29.2317234,25.8888776 29.9678551,25.8888776 C30.6948814,25.8888776 31.5897839,26.4769388 32.6337891,27.250102 C33.6777942,28.0231633 34.8805056,28.9861224 36.4624835,28.940102 C37.927733,28.8962245 39.3423644,28.0255102 40.5531823,27.2361224 C41.7640003,26.4467347 42.5704272,25.6676531 42.5704272,25.6676531 C43.5929377,24.8213265 42.5070458,23.2229592 41.4845383,24.0692857 C41.4845383,24.0692857 40.6204031,24.7854082 39.5147301,25.5062245 C38.409056,26.2270408 36.9934288,26.8818367 36.4070235,26.8992857 C35.6872851,26.9207143 34.8064522,26.3570408 33.7678628,25.5879592 C32.7292735,24.8188776 31.543157,23.8480612 29.9678551,23.8480612 C28.4016594,23.8480612 27.21098,24.7973469 26.1697586,25.56 C25.1285383,26.3227551 24.2361326,26.8992857 23.5,26.8992857 C22.7638684,26.8992857 21.8714618,26.3227551 20.8302414,25.56 C19.78902,24.7973469 18.5983406,23.8480612 17.0321449,23.8480612 C15.4566481,23.8480612 14.2706688,24.8186735 13.2321372,25.5879592 C12.1936046,26.3571429 11.312385,26.9207143 10.5929765,26.8992857 C10.0073311,26.8819388 8.59086905,26.2271429 7.48527013,25.5062245 C6.37967131,24.7853061 5.51737465,24.0692857 5.51737465,24.0692857 C5.33856432,23.9165306 5.1136468,23.8345918 4.88244626,23.8380612 Z" id="Shape"></path>
            </g>
        </g>
    </g>
</svg>