<?xml version="1.0" encoding="UTF-8"?>
<svg width="50px" height="50px" viewBox="0 0 50 50" version="1.1" xmlns="http://www.w3.org/2000/svg" xmlns:xlink="http://www.w3.org/1999/xlink">
    <!-- Generator: Sketch 51 (57462) - http://www.bohemiancoding.com/sketch -->
    <title>Mobile</title>
    <desc>Created with Sketch.</desc>
    <defs></defs>
    <g id="Mobile" stroke="none" stroke-width="1" fill="none" fill-rule="evenodd">
        <g id="noun_Drink_1201313" transform="translate(8.000000, 0.000000)" fill="#FFFFFF" fill-rule="nonzero">
            <g id="Group">
                <path d="M32.7740765,0.20841573 C32.7153528,0.215433857 32.6572769,0.227175236 32.6004017,0.24352809 L26.4870412,1.36661236 C26.0859957,1.43340329 25.7530016,1.71602787 25.6186661,2.10363483 L23.6387709,8.08756742 L15.562883,8.08756742 L1.66888164,8.08756742 C1.63416574,8.08592153 1.59939255,8.08592153 1.56467666,8.08756742 C1.26937812,8.11424781 0.996862563,8.25901126 0.807704821,8.48967972 C0.618547079,8.72034818 0.528421579,9.01780745 0.557361443,9.3159382 L4.44768213,48.6238876 C4.50166281,49.2026807 4.98383594,49.6442025 5.55920177,49.6416966 L25.5665636,49.6416966 C26.1419297,49.6442028 26.6241031,49.202681 26.6780838,48.6238876 L30.568404,9.3159382 C30.5977869,9.0003066 30.4937891,8.6868274 30.282073,8.45285421 C30.0703568,8.21888102 29.7706413,8.08620585 29.4568838,8.08756742 L26.0007509,8.08756742 L27.529091,3.4548427 L32.9824865,2.45459551 C33.5963621,2.39644593 34.0473524,1.84648443 33.9898016,1.22622211 C33.9322508,0.605959798 33.3879521,0.150277389 32.7740765,0.208426966 L32.7740765,0.20841573 Z M2.90197413,10.3337247 L15.562883,10.3337247 L22.909336,10.3337247 L20.1305355,18.739309 C18.9081948,18.758073 17.6511061,18.6869494 16.3444204,18.5462809 C12.2376033,18.1040506 7.83828698,17.0423596 3.52720459,16.580882 L2.90197413,10.3337247 Z M25.2539487,10.3337247 L28.2237913,10.3337247 L27.5811935,16.7739101 C26.0512509,17.7482809 24.3628644,18.3061685 22.5446186,18.5638258 L25.2539487,10.3337247 Z M3.75298187,18.8621461 C7.72515728,19.3316292 11.9713771,20.3283202 16.1186431,20.7748989 C20.0105378,21.1939775 23.8851538,21.1258258 27.320681,19.493882 L24.5592484,47.3955056 L6.56651698,47.3955056 L3.75298187,18.8621461 Z" id="Shape"></path>
            </g>
        </g>
    </g>
</svg>