<?xml version="1.0" encoding="UTF-8"?>
<svg width="50px" height="50px" viewBox="0 0 50 50" version="1.1" xmlns="http://www.w3.org/2000/svg" xmlns:xlink="http://www.w3.org/1999/xlink">
    <!-- Generator: Sketch 51 (57462) - http://www.bohemiancoding.com/sketch -->
    <title>Mobile</title>
    <desc>Created with Sketch.</desc>
    <defs></defs>
    <g id="Mobile" stroke="none" stroke-width="1" fill="none" fill-rule="evenodd">
        <g id="noun_Hookah_1638406" transform="translate(10.000000, 0.000000)" fill="#FFFFFF" fill-rule="nonzero">
            <path d="M28.6725762,4.12777778 L28.6725762,0.833333333 C28.6725762,0.372777778 28.300831,0 27.8415512,0 C27.3822715,0 27.0105263,0.372777778 27.0105263,0.833333333 L27.0105263,4.15888889 C26.2709141,4.49222222 25.7529086,5.23444444 25.7529086,6.09888889 L25.7529086,13.6538889 C25.7529086,14.5183333 26.2709141,15.2605556 27.0105263,15.5938889 L27.0105263,42.0222222 C27.0105263,43.0305556 26.1922438,43.8511111 25.1867036,43.8511111 C24.1811634,43.8511111 23.3628809,43.0305556 23.3628809,42.0222222 L23.3628809,21.8316667 C23.3628809,19.8588889 21.7623269,18.2538889 19.7950139,18.2538889 C18.8421053,18.2538889 17.9457064,18.6261111 17.2720222,19.3022222 L12.9950139,23.5911111 C12.6781163,23.405 12.2465374,23.4305556 11.9817175,23.6961111 L11.4808864,24.1983333 C11.2426593,24.4372222 11.1833795,24.7838889 11.2947368,25.0805556 L10.1639889,26.0055556 C10.1313019,25.9822222 10.098615,25.9588889 10.065374,25.9366667 L10.5817175,22.2788889 C11.6914127,22.1905556 12.5706371,21.2672222 12.5706371,20.1316667 C12.5706371,18.9888889 11.6803324,18.06 10.5595568,17.9822222 L10.1778393,15.7816667 L10.4121884,15.7816667 C11.6022161,15.7816667 12.5706371,14.8105556 12.5706371,13.6172222 C12.5706371,12.5077778 11.7307479,11.6016667 10.6570637,11.4777778 L10.1783934,8.71833333 L12.3806094,8.71833333 C14.533518,8.71833333 16.2847645,6.96166667 16.2847645,4.80277778 C16.2847645,4.34222222 15.9130194,3.96944444 15.4537396,3.96944444 L11.2072022,3.96944444 C11.5844875,3.39166667 11.8060942,2.70277778 11.8060942,1.96222222 L11.8060942,0.833333333 C11.8060942,0.372777778 11.434349,0 10.9750693,0 L5.30969529,0 C4.85041551,0 4.47867036,0.372777778 4.47867036,0.833333333 L4.47867036,1.96222222 C4.47867036,2.70277778 4.70027701,3.39222222 5.07756233,3.96944444 L0.831024931,3.96944444 C0.371745152,3.96944444 0,4.34222222 0,4.80277778 C0,6.96166667 1.75180055,8.71833333 3.90470914,8.71833333 L6.10637119,8.71833333 L5.62770083,11.4777778 C4.5534626,11.6011111 3.71357341,12.5077778 3.71357341,13.6172222 C3.71357341,14.8105556 4.68199446,15.7816667 5.87202216,15.7816667 L6.10637119,15.7816667 L5.72465374,17.9816667 C4.65540166,18.0555556 3.78781163,18.9066667 3.71855956,19.9927778 C3.71855956,19.995 3.71745152,19.9972222 3.71745152,20 C3.71468144,20.0438889 3.71357341,20.0877778 3.71357341,20.1316667 C3.71357341,21.2672222 4.59279778,22.1905556 5.70249307,22.2788889 L6.21883657,25.9366667 C5.26481994,26.5661111 4.633241,27.6477778 4.633241,28.8761111 L4.633241,30.1605556 L4.633241,31.6711111 C4.633241,32.47 5.04542936,33.1722222 5.66648199,33.5805556 L5.66648199,36.6194444 C4.39612188,37.4533333 3.61163435,38.8733333 3.61163435,40.4083333 C3.61163435,41.0377778 3.75069252,41.6422222 3.9933518,42.2044444 C1.57229917,43.3966667 0.00166204986,45.8666667 0.00166204986,48.6294444 L0.00166204986,49.1666667 C0.00166204986,49.6272222 0.373407202,50 0.832686981,50 L15.4520776,50 C15.9113573,50 16.2831025,49.6272222 16.2831025,49.1666667 L16.2831025,48.6288889 C16.2831025,45.8661111 14.7124654,43.3966667 12.2908587,42.2038889 C12.533518,41.6416667 12.6725762,41.0377778 12.6725762,40.4077778 C12.6725762,38.8727778 11.8886427,37.4522222 10.6182825,36.6188889 L10.6182825,33.58 C11.2387812,33.1711111 11.6509695,32.4694444 11.6509695,31.6705556 L11.6509695,30.16 L11.6509695,28.8755556 C11.6509695,28.5416667 11.601108,28.2194444 11.5141274,27.9127778 L12.6897507,26.4744444 C12.7828255,26.5088889 12.8792244,26.5305556 12.9772853,26.5305556 C13.1900277,26.5305556 13.4027701,26.4494444 13.565097,26.2866667 L14.065928,25.7844444 C14.2216066,25.6283333 14.3091413,25.4161111 14.3091413,25.195 C14.3091413,25.0383333 14.2631579,24.8872222 14.1822715,24.7566667 L18.4470914,20.48 C18.8072022,20.1188889 19.2858726,19.92 19.7950139,19.92 C20.8459834,19.92 21.700831,20.7772222 21.700831,21.8311111 L21.700831,42.0211111 C21.700831,43.9483333 23.2642659,45.5166667 25.1867036,45.5166667 C27.1091413,45.5166667 28.6725762,43.9488889 28.6725762,42.0211111 L28.6725762,15.6244444 C29.4493075,15.3077778 30,14.545 30,13.6538889 L30,6.09888889 C30,5.20722222 29.4493075,4.44444444 28.6725762,4.12777778 Z M8.74792244,29.3272222 C8.28864266,29.3272222 7.91689751,29.7 7.91689751,30.1605556 C7.91689751,30.6211111 8.28864266,30.9938889 8.74792244,30.9938889 L9.98891967,30.9938889 L9.98891967,31.6711111 C9.98891967,32.0122222 9.71191136,32.29 9.37174515,32.29 L6.91246537,32.29 C6.57229917,32.29 6.29529086,32.0122222 6.29529086,31.6711111 L6.29529086,30.9938889 L6.60554017,30.9938889 C7.06481994,30.9938889 7.4365651,30.6211111 7.4365651,30.1605556 C7.4365651,29.7 7.06481994,29.3272222 6.60554017,29.3272222 L6.29529086,29.3272222 L6.29529086,28.8761111 C6.29529086,27.855 7.12409972,27.0244444 8.14182825,27.0244444 C9.15955679,27.0244444 9.98836565,27.8555556 9.98836565,28.8761111 L9.98836565,29.3272222 L8.74792244,29.3272222 Z M8.95623269,36.3466667 L7.32853186,36.3466667 L7.32853186,33.9561111 L8.95623269,33.9561111 L8.95623269,36.3466667 Z M6.14072022,1.96222222 L6.14072022,1.66666667 L10.1445983,1.66666667 L10.1445983,1.96222222 C10.1445983,3.06888889 9.2465374,3.96944444 8.14293629,3.96944444 C7.03933518,3.96944444 6.14072022,3.06888889 6.14072022,1.96222222 Z M1.82160665,5.63611111 L14.4631579,5.63611111 C14.13241,6.465 13.3235457,7.05166667 12.3806094,7.05166667 L7.07368421,7.05166667 C7.07091413,7.05166667 7.06869806,7.05166667 7.06592798,7.05166667 L3.90470914,7.05166667 C2.96177285,7.05166667 2.15290859,6.465 1.82160665,5.63611111 Z M5.37617729,13.6172222 C5.37617729,13.3427778 5.59889197,13.1194444 5.87257618,13.1194444 L7.77063712,13.1194444 C8.2299169,13.1194444 8.60166205,12.7466667 8.60166205,12.2861111 C8.60166205,11.8255556 8.2299169,11.4527778 7.77063712,11.4527778 L7.32022161,11.4527778 L7.79445983,8.71833333 L8.49196676,8.71833333 L9.02714681,11.8044444 C8.93019391,11.9405556 8.87202216,12.1061111 8.87202216,12.2861111 C8.87202216,12.7466667 9.24376731,13.1194444 9.70304709,13.1194444 L10.4132964,13.1194444 C10.6869806,13.1194444 10.9096953,13.3427778 10.9096953,13.6172222 C10.9096953,13.8916667 10.6869806,14.115 10.4132964,14.115 L5.87257618,14.115 C5.59889197,14.115 5.37617729,13.8916667 5.37617729,13.6172222 Z M5.3767313,20.1011111 C5.3767313,20.1011111 5.3767313,20.1005556 5.3767313,20.1011111 C5.3767313,20.1005556 5.3767313,20.1005556 5.3767313,20.1011111 C5.39279778,19.8388889 5.6099723,19.6344444 5.87202216,19.6344444 L6.93185596,19.6344444 C7.39113573,19.6344444 7.76288089,19.2616667 7.76288089,18.8011111 C7.76288089,18.5111111 7.61495845,18.2561111 7.39058172,18.1066667 L7.79390582,15.7816667 L8.49085873,15.7816667 L8.87146814,17.9738889 C8.44265928,18.0066667 8.10360111,18.3622222 8.10360111,18.8011111 C8.10360111,19.2616667 8.47534626,19.6344444 8.93462604,19.6344444 L10.4127424,19.6344444 C10.6864266,19.6344444 10.9091413,19.8577778 10.9091413,20.1322222 C10.9091413,20.4066667 10.6864266,20.63 10.4127424,20.63 L5.87202216,20.63 C5.59889197,20.6294444 5.37617729,20.4061111 5.3767313,20.1011111 Z M7.38448753,22.2961111 L8.90138504,22.2961111 L8.46648199,25.3738889 C8.35955679,25.3638889 8.25207756,25.3572222 8.14293629,25.3572222 C8.03379501,25.3572222 7.92576177,25.3638889 7.81883657,25.3738889 L7.38448753,22.2961111 Z M13.8443213,45.8116667 L13.1024931,45.8116667 C12.6432133,45.8116667 12.2714681,46.1844444 12.2714681,46.645 C12.2714681,47.1055556 12.6432133,47.4783333 13.1024931,47.4783333 L14.499723,47.4783333 C14.5590028,47.7572222 14.5977839,48.0427778 14.6132964,48.3333333 L1.67202216,48.3333333 C1.68753463,48.0427778 1.72631579,47.7572222 1.78559557,47.4783333 L10.9368421,47.4783333 C11.3961219,47.4783333 11.767867,47.1055556 11.767867,46.645 C11.767867,46.1844444 11.3961219,45.8116667 10.9368421,45.8116667 L2.44099723,45.8116667 C3.08144044,44.7361111 4.08365651,43.8883333 5.31800554,43.4494444 L10.967313,43.4494444 C12.201662,43.8883333 13.2038781,44.7361111 13.8443213,45.8116667 Z M10.6592798,41.7822222 L5.62603878,41.7822222 C5.39722992,41.3638889 5.27423823,40.8966667 5.27423823,40.4072222 C5.27423823,39.4377778 5.76897507,38.54 6.57119114,38.0127778 L9.71468144,38.0127778 C10.5163435,38.5405556 11.0110803,39.4372222 11.0110803,40.4072222 C11.0110803,40.8972222 10.8875346,41.3644444 10.6592798,41.7822222 Z" id="Shape"></path>
        </g>
    </g>
</svg>