<?xml version="1.0" encoding="UTF-8"?>
<svg width="50px" height="50px" viewBox="0 0 50 50" version="1.1" xmlns="http://www.w3.org/2000/svg" xmlns:xlink="http://www.w3.org/1999/xlink">
    <!-- Generator: Sketch 51 (57462) - http://www.bohemiancoding.com/sketch -->
    <title>Mobile</title>
    <desc>Created with Sketch.</desc>
    <defs></defs>
    <g id="Mobile" stroke="none" stroke-width="1" fill="none" fill-rule="evenodd">
        <g id="noun_Popsicle_1694349" transform="translate(14.000000, 0.000000)" fill="#FFFFFF" fill-rule="nonzero">
            <path d="M21.3077753,8.69410661 C17.911401,8.69410661 15.4326448,5.56707075 15.8259071,2.17944907 C15.8854925,1.75303496 16.3740944,0.0118445962 14.7891203,0.0118445962 L14.7891203,0 L7.48393835,0 C3.30103715,0 0,3.55344943 0,7.73467582 L0,32.0521155 C0,32.703581 0.536269292,33.2366005 1.19170949,33.2366005 L9.60518167,33.2366005 L9.60518167,48.1255553 C9.60518167,50.6248149 13.3948206,50.6248149 13.3948206,48.1255553 L13.3948206,33.2366005 L21.7963771,33.2366005 C22.4637307,33.2366005 23,32.703581 23,32.0521155 L23,9.86674478 C23,8.63488249 21.8559626,8.69410661 21.3077753,8.69410661 Z M20.604663,11.0512287 L20.604663,30.8557893 L2.39533697,30.8557893 L2.39533697,7.73467582 C2.39533697,4.86822568 4.61191753,2.39265592 7.48393835,2.39265592 L13.4067363,2.39265592 C13.1326427,6.72786433 16.2668414,10.6485044 20.604663,11.0512287 Z" id="Shape"></path>
        </g>
    </g>
</svg>