<?xml version="1.0" encoding="UTF-8"?>
<svg width="57px" height="27px" viewBox="0 0 57 27" version="1.1" xmlns="http://www.w3.org/2000/svg" xmlns:xlink="http://www.w3.org/1999/xlink">
    <!-- Generator: Sketch 51 (57462) - http://www.bohemiancoding.com/sketch -->
    <title>Mobile</title>
    <desc>Created with Sketch.</desc>
    <defs></defs>
    <g id="Mobile" stroke="none" stroke-width="1" fill="none" fill-rule="evenodd">
        <g id="noun_Hookah_436168" fill="#FFFFFF" fill-rule="nonzero">
            <path d="M24.7938619,10.1099504 C23.3356676,9.27011373 21.5672193,9.33232385 20.1710759,10.2654758 L14.865731,13.7181378 C14.8036802,13.5937176 14.6795786,13.5004024 14.5865024,13.4070872 C14.8347056,13.1271416 14.9588073,12.7227758 14.9588073,12.349515 C14.9588073,11.9140441 14.8036802,11.5407834 14.5554769,11.1986277 C14.8036802,10.887577 14.9588073,10.4832112 14.9588073,10.0788454 C14.9588073,9.86110993 14.8967564,9.61226943 14.8347056,9.42563904 L14.9588073,9.42563904 C15.9516203,9.42563904 16.5411031,8.67911752 16.758281,8.36806688 L16.7893064,8.33696182 C16.8513572,8.24364663 16.9444334,8.1814365 17.0064842,8.15033143 L17.1926367,8.15033143 C17.6269924,8.15033143 17.9682719,7.80817573 17.9682719,7.37270484 C17.9682719,6.93723395 17.6269924,6.59507825 17.1926367,6.59507825 L14.7416294,6.59507825 L14.7416294,5.84855672 L15.3621376,5.4441909 C15.6103408,5.28866558 15.7654679,5.00872001 15.7964933,4.72877443 C15.7964933,4.60435418 15.7964933,4.44882886 15.7964933,4.26219848 C15.7964933,4.16888329 15.7964933,4.0755681 15.7964933,4.01335797 C15.7964933,3.54678202 15.393163,3.17352125 14.9277819,3.17352125 L12.0113934,3.17352125 C11.5460123,3.17352125 11.1737074,3.54678202 11.142682,4.01335797 C11.142682,4.10667316 11.142682,4.16888329 11.142682,4.26219848 C11.142682,4.44882886 11.142682,4.60435418 11.1737074,4.72877443 C11.2047328,5.00872001 11.3598598,5.28866558 11.6080631,5.4441909 L12.2285713,5.84855672 L12.2285713,6.59507825 L9.80858939,6.59507825 C9.37423367,6.59507825 9.03295417,6.93723395 9.03295417,7.37270484 C9.03295417,7.80817573 9.37423367,8.15033143 9.80858939,8.15033143 L9.99474185,8.15033143 C10.0567927,8.1814365 10.1498689,8.27475169 10.2119197,8.33696182 L10.2429451,8.36806688 C10.4911484,8.67911752 11.0496057,9.42563904 12.0424188,9.42563904 L12.1665205,9.42563904 C12.0734442,9.64337449 12.0424188,9.86110993 12.0424188,10.0788454 C12.0424188,10.5143163 12.1975459,10.887577 12.4457491,11.2297327 C12.1975459,11.5407834 12.0424188,11.9451492 12.0424188,12.349515 C12.0424188,12.7538809 12.1665205,13.1271416 12.4147237,13.4070872 C12.3216475,13.5004024 12.2285713,13.5937176 12.1665205,13.6870328 L11.5770377,13.313772 C11.4219107,13.2204568 11.2357582,13.2515619 11.142682,13.4070872 C11.0496057,13.5626125 11.0806312,13.7492429 11.2357582,13.8425581 L11.9183172,14.278029 C11.8872918,14.3713442 11.8872918,14.4957644 11.8872918,14.5890796 C11.8872918,14.9312353 11.980368,15.2422859 12.1665205,15.4911265 C12.1665205,15.4911265 12.1665205,15.5222315 12.1665205,15.5222315 C12.1665205,15.5533366 12.1975459,20.2190961 9.00192876,21.8054544 C8.62962386,21.9920848 8.412446,22.3342405 8.412446,22.7386063 C8.412446,23.3296025 8.87782713,23.7961784 9.4673099,23.7961784 L17.5649416,23.7961784 C18.1544244,23.7961784 18.6198055,23.3296025 18.6198055,22.7386063 C18.6198055,22.3342405 18.4026276,21.9609797 18.0303227,21.8054544 C14.8347056,20.2190961 14.865731,15.5844416 14.865731,15.5222315 C14.865731,15.5222315 14.865731,15.4911265 14.865731,15.4911265 C15.0518835,15.2422859 15.1449597,14.9312353 15.1449597,14.5890796 C15.1449597,14.4957644 15.1449597,14.4024492 15.1139343,14.309134 L20.5123554,10.7631568 C21.7223464,9.98553019 23.2425914,9.92332006 24.4836078,10.6387365 C25.7246241,11.354153 26.4382085,12.6294606 26.3761577,14.0602935 L26.3761577,14.2158188 C25.9728274,20.6856721 20.6364571,26.004638 14.183172,26.3467937 C10.6773008,26.533424 7.32655669,25.2892215 4.75144775,22.9252367 C2.20736423,20.5301468 0.749170012,17.2952201 0.656093786,13.780348 C0.563017559,10.358791 1.83505932,7.09275927 4.25504121,4.57324912 C6.64399769,2.05373896 9.8396148,0.654011097 13.2834352,0.59180097 C16.0446966,0.529590842 18.6818563,1.3383225 20.9467112,2.95578581 C20.8846603,3.08020606 20.8536349,3.20462632 20.8536349,3.36015163 C20.8536349,3.60899214 20.9467112,3.85783265 21.1328636,4.04446303 L23.6769471,6.59507825 C23.8630996,6.78170863 24.1113029,6.87502382 24.3595061,6.87502382 C24.5146332,6.87502382 24.6387348,6.84391876 24.7628365,6.78170863 L25.259243,7.27938965 C25.259243,7.37270484 25.2902684,7.43491497 25.3523192,7.4971251 C25.5074463,7.65265042 25.7556495,7.65265042 25.9107766,7.4971251 C26.0659036,7.34159978 26.0659036,7.09275927 25.9107766,6.93723395 C25.8487258,6.87502382 25.7556495,6.84391876 25.6935987,6.84391876 L25.1971922,6.37734281 C25.259243,6.25292255 25.2902684,6.09739723 25.2902684,5.97297698 C25.2902684,5.72413647 25.1971922,5.47529596 25.0110397,5.28866558 L22.4669562,2.73805036 C22.1877275,2.45810479 21.7223464,2.39589466 21.3810669,2.55141998 C18.9921104,0.840641479 16.1998236,-0.0303003032 13.2524098,0.000804760429 C9.65346235,0.0630148877 6.30271819,1.55605794 3.78966008,4.19998835 C1.24557655,6.78170863 -0.0885160265,10.2032656 0.00456020004,13.811453 C0.0976364266,17.4818505 1.61788146,20.9034075 4.31709203,23.3918126 C6.83015014,25.7246924 10.0878181,27 13.500613,27 C13.7488163,27 13.9659942,27 14.2141974,26.9688949 C20.9777366,26.6267392 26.5933356,21.0278278 26.9966659,14.2469239 L26.9966659,14.0913986 C27.0587167,12.4117252 26.2520561,10.9186821 24.7938619,10.1099504 Z M13.500613,15.5844416 C12.9731811,15.5844416 12.5388254,15.1489708 12.5388254,14.6201847 C12.5388254,14.0913986 12.9731811,13.6559277 13.500613,13.6559277 C14.028045,13.6559277 14.4624007,14.0913986 14.4624007,14.6201847 C14.4934261,15.1489708 14.0590704,15.5844416 13.500613,15.5844416 Z M11.825241,4.63545924 C11.825241,4.51103899 11.7942156,4.38661873 11.7942156,4.19998835 C11.7942156,4.10667316 11.7942156,4.04446303 11.7942156,3.98225291 C11.7942156,3.85783265 11.8872918,3.76451746 12.0113934,3.76451746 L14.9277819,3.76451746 C15.0518835,3.76451746 15.1449597,3.85783265 15.1449597,3.98225291 C15.1449597,4.04446303 15.1449597,4.13777822 15.1449597,4.19998835 C15.1449597,4.38661873 15.1449597,4.51103899 15.1449597,4.63545924 C15.1449597,4.72877443 15.0829089,4.79098456 15.0208581,4.85319469 L14.3072737,5.28866558 L12.662927,5.28866558 L11.9493426,4.85319469 C11.8872918,4.79098456 11.8562664,4.72877443 11.825241,4.63545924 Z M12.9111303,5.91076685 L14.1211212,5.91076685 L14.1211212,6.58576685 L12.9111303,6.58576685 L12.9111303,5.91076685 Z M10.7703771,7.93259599 L10.7393517,7.90149093 C10.5842246,7.68375548 10.3670468,7.55933522 10.2739705,7.4971251 L10.2119197,7.46602003 L9.87064021,7.46602003 C9.80858939,7.46602003 9.74653858,7.40380991 9.74653858,7.34159978 C9.74653858,7.27938965 9.80858939,7.21717952 9.87064021,7.21717952 L12.5698508,7.21717952 L14.4313753,7.21717952 L17.1616113,7.21717952 C17.2236621,7.21717952 17.2857129,7.27938965 17.2857129,7.34159978 C17.2857129,7.40380991 17.2236621,7.46602003 17.1616113,7.46602003 L16.8203318,7.46602003 L16.758281,7.4971251 C16.6341793,7.55933522 16.4480269,7.71486054 16.2928998,7.90149093 L16.2618744,7.93259599 C16.0446966,8.21254156 15.6413663,8.74132764 14.9588073,8.74132764 L12.1044696,8.74132764 C11.3908852,8.77243271 10.9875549,8.21254156 10.7703771,7.93259599 Z M12.6939524,12.349515 C12.6939524,12.0695695 12.7870286,11.8207289 12.9421557,11.6652036 C13.1593335,11.4163631 13.1593335,11.0431024 12.9421557,10.7942618 C12.7870286,10.6076315 12.6939524,10.358791 12.6939524,10.1099504 C12.6939524,9.86110993 12.7870286,9.61226943 12.9111303,9.45674411 L14.0900958,9.45674411 C14.2452229,9.64337449 14.3072737,9.86110993 14.3072737,10.1099504 C14.3072737,10.389896 14.2141974,10.6387365 14.0590704,10.7942618 C13.8418925,11.0431024 13.8418925,11.4163631 14.0590704,11.6652036 C14.2141974,11.851834 14.3072737,12.1006745 14.3072737,12.349515 C14.3072737,12.6294606 14.2141974,12.9094062 14.028045,13.0960366 C13.872918,13.0338264 13.6867655,13.0027214 13.500613,13.0027214 C13.3144606,13.0027214 13.1593335,13.0338264 12.9731811,13.0960366 C12.8180541,12.9094062 12.6939524,12.6294606 12.6939524,12.349515 Z M12.7870286,16.0510176 C12.9111303,16.1132277 13.0352319,16.1754379 13.190359,16.2065429 L13.190359,19.8147303 C13.0352319,19.8458354 12.9421557,19.9391506 12.8490795,19.9702556 C12.7249778,20.0324657 12.662927,20.0946759 12.4767746,20.0946759 C12.2906221,20.0946759 12.2285713,20.0635708 12.1044696,19.9702556 C12.0113934,19.9080455 11.9183172,19.8769404 11.7942156,19.8147303 C12.5388254,18.3838974 12.7249778,16.8286442 12.7870286,16.0510176 Z M17.7200686,22.3964506 C17.8751957,22.4586607 17.9372465,22.614186 17.9372465,22.7697113 C17.9372465,22.9874468 17.7510941,23.1740772 17.5339162,23.1740772 L9.4673099,23.1740772 C9.25013203,23.1740772 9.06397958,22.9874468 9.06397958,22.7697113 C9.06397958,22.614186 9.15705581,22.4586607 9.28115744,22.3964506 C10.2739705,21.8987696 10.9565295,21.1833531 11.4839615,20.3746214 C11.6080631,20.3746214 11.6701139,20.4368316 11.7631901,20.4990417 C11.9183172,20.5923569 12.1044696,20.7167771 12.4767746,20.7167771 C12.8490795,20.7167771 13.0352319,20.5923569 13.190359,20.4990417 C13.190359,20.4990417 13.190359,20.4990417 13.190359,20.4990417 L13.190359,21.6810341 C13.190359,21.8676645 13.345486,21.9920848 13.500613,21.9920848 C13.6867655,21.9920848 13.8108671,21.8365594 13.8108671,21.6810341 L13.8108671,20.4679366 C13.8418925,20.4679366 13.8418925,20.4990417 13.872918,20.4990417 C14.028045,20.5923569 14.2141974,20.7167771 14.5865024,20.7167771 C14.9588073,20.7167771 15.1449597,20.5923569 15.3000868,20.4990417 C15.393163,20.4368316 15.4552138,20.4057265 15.54829,20.4057265 C16.0446966,21.2144582 16.758281,21.9298746 17.7200686,22.3964506 Z M15.2070105,19.8458354 C15.1139343,19.8769404 15.0208581,19.9391506 14.9588073,19.9702556 C14.8347056,20.0324657 14.7726548,20.0946759 14.5865024,20.0946759 C14.4003499,20.0946759 14.3382991,20.0635708 14.2141974,19.9702556 C14.1211212,19.9080455 13.9970196,19.8458354 13.8108671,19.7836252 L13.8108671,16.2065429 C13.9659942,16.1754379 14.0900958,16.1132277 14.2141974,16.0510176 C14.2762483,16.8286442 14.4624007,18.3838974 15.2070105,19.8458354 Z M21.7843972,3.01799593 C21.8774734,3.01799593 21.9395242,3.049101 22.0015751,3.11131112 L24.5456586,5.66192634 C24.6077094,5.72413647 24.6387348,5.81745166 24.6387348,5.87966179 C24.6387348,5.97297698 24.6077094,6.03518711 24.5456586,6.09739723 C24.421557,6.22181749 24.2043791,6.22181749 24.0802775,6.09739723 L21.5672193,3.57788708 C21.5051685,3.51567695 21.4741431,3.42236176 21.4741431,3.36015163 C21.4741431,3.26683644 21.5051685,3.20462632 21.5672193,3.14241619 C21.6292702,3.049101 21.691321,3.01799593 21.7843972,3.01799593 Z" id="Shape"></path>
        </g>
    </g>
</svg>