<?xml version="1.0" encoding="UTF-8"?>
<svg width="57px" height="57px" viewBox="0 0 57 57" version="1.1" xmlns="http://www.w3.org/2000/svg" xmlns:xlink="http://www.w3.org/1999/xlink">
    <!-- Generator: Sketch 51 (57462) - http://www.bohemiancoding.com/sketch -->
    <title>Mobile</title>
    <desc>Created with Sketch.</desc>
    <defs></defs>
    <g id="Mobile" stroke="none" stroke-width="1" fill="none" fill-rule="evenodd">
        <g id="noun_Hookah_436168" fill="#FFFFFF" fill-rule="nonzero">
            <path d="M52.3425973,21.3432287 C49.2641873,19.5702401 45.5307964,19.7015726 42.5833825,21.6715599 L31.38321,28.9605132 C31.2522138,28.6978482 30.9902214,28.5008495 30.7937272,28.3038507 C31.3177119,27.7128545 31.5797042,26.8591933 31.5797042,26.0711984 C31.5797042,25.151871 31.2522138,24.363876 30.7282291,23.6415473 C31.2522138,22.9848849 31.5797042,22.1312237 31.5797042,21.2775625 C31.5797042,20.8178988 31.448708,20.2925688 31.3177119,19.8985713 L31.5797042,19.8985713 C33.6756429,19.8985713 34.9201066,18.3225814 35.3785932,17.665919 L35.4440912,17.6002527 C35.5750874,17.403254 35.7715817,17.2719215 35.9025778,17.2062552 L36.2955664,17.2062552 C37.2125396,17.2062552 37.9330185,16.4839265 37.9330185,15.5645991 C37.9330185,14.6452717 37.2125396,13.922943 36.2955664,13.922943 L31.1212176,13.922943 L31.1212176,12.3469531 L32.4311793,11.4932919 C32.955164,11.1649607 33.2826544,10.5739645 33.3481525,9.98296825 C33.3481525,9.72030327 33.3481525,9.39197204 33.3481525,8.99797457 C33.3481525,8.80097583 33.3481525,8.60397709 33.3481525,8.4726446 C33.3481525,7.48765092 32.4966774,6.69965598 31.5142061,6.69965598 L25.3573861,6.69965598 C24.3749148,6.69965598 23.5889378,7.48765092 23.5234397,8.4726446 C23.5234397,8.66964334 23.5234397,8.80097583 23.5234397,8.99797457 C23.5234397,9.39197204 23.5234397,9.72030327 23.5889378,9.98296825 C23.6544359,10.5739645 23.9819263,11.1649607 24.505911,11.4932919 L25.8158727,12.3469531 L25.8158727,13.922943 L20.7070221,13.922943 C19.7900489,13.922943 19.0695699,14.6452717 19.0695699,15.5645991 C19.0695699,16.4839265 19.7900489,17.2062552 20.7070221,17.2062552 L21.1000106,17.2062552 C21.2310067,17.2719215 21.427501,17.4689202 21.5584972,17.6002527 L21.6239952,17.665919 C22.1479799,18.3225814 23.3269455,19.8985713 25.4228842,19.8985713 L25.6848765,19.8985713 C25.4883823,20.358235 25.4228842,20.8178988 25.4228842,21.2775625 C25.4228842,22.1968899 25.7503746,22.9848849 26.2743593,23.7072136 C25.7503746,24.363876 25.4228842,25.2175372 25.4228842,26.0711984 C25.4228842,26.9248596 25.6848765,27.7128545 26.2088612,28.3038507 C26.012367,28.5008495 25.8158727,28.6978482 25.6848765,28.8948469 L24.4404129,28.106852 C24.1129225,27.9098533 23.719934,27.9755195 23.5234397,28.3038507 C23.3269455,28.632182 23.3924435,29.0261794 23.719934,29.2231782 L25.1608919,30.1425056 C25.0953938,30.3395043 25.0953938,30.6021693 25.0953938,30.7991681 C25.0953938,31.5214968 25.291888,32.1781592 25.6848765,32.7034892 C25.6848765,32.7034892 25.6848765,32.7691554 25.6848765,32.7691554 C25.6848765,32.8348217 25.7503746,42.6847585 19.0040718,46.033737 C18.2180948,46.4277345 17.7596082,47.1500632 17.7596082,48.0037244 C17.7596082,49.251383 18.7420795,50.2363767 19.9865431,50.2363767 L37.0815434,50.2363767 C38.326007,50.2363767 39.3084783,49.251383 39.3084783,48.0037244 C39.3084783,47.1500632 38.8499917,46.3620682 38.0640147,46.033737 C31.3177119,42.6847585 31.38321,32.9004879 31.38321,32.7691554 C31.38321,32.7691554 31.38321,32.7034892 31.38321,32.7034892 C31.7761985,32.1781592 31.9726927,31.5214968 31.9726927,30.7991681 C31.9726927,30.6021693 31.9726927,30.4051706 31.9071946,30.2081719 L43.3038615,22.7222199 C45.8582868,21.0805637 49.067693,20.9492312 51.6876164,22.4595549 C54.3075398,23.9698785 55.8139958,26.6621946 55.6829996,29.6828419 L55.6829996,30.0111731 C54.8315245,43.6697522 43.5658538,54.8986801 29.9422521,55.6210088 C22.5409684,56.0150063 15.4671752,53.3883565 10.0308341,48.3977218 C4.65999115,43.3414209 1.58158114,36.5121314 1.38508688,29.0918457 C1.18859262,21.8685587 3.87401412,14.9736029 8.98286478,9.65463702 C14.0262173,4.33567114 20.7725201,1.38069009 28.0428076,1.2493576 C33.8721372,1.11802511 39.4394745,2.82534749 44.2208347,6.23999226 C44.0898385,6.50265724 44.0243404,6.76532222 44.0243404,7.09365345 C44.0243404,7.61898341 44.2208347,8.14431338 44.6138232,8.53831085 L49.9846662,13.922943 C50.3776547,14.3169404 50.9016394,14.5139392 51.4256241,14.5139392 C51.7531145,14.5139392 52.0151068,14.4482729 52.2770992,14.3169404 L53.3250685,15.3676004 C53.3250685,15.5645991 53.3905666,15.6959316 53.5215628,15.8272641 C53.8490532,16.1555953 54.3730379,16.1555953 54.7005283,15.8272641 C55.0280188,15.4989329 55.0280188,14.9736029 54.7005283,14.6452717 C54.5695322,14.5139392 54.3730379,14.4482729 54.2420417,14.4482729 L53.1940724,13.4632793 C53.3250685,13.2006143 53.3905666,12.872283 53.3905666,12.6096181 C53.3905666,12.0842881 53.1940724,11.5589581 52.8010839,11.1649607 L47.4302409,5.78032854 C46.8407581,5.18933233 45.8582868,5.05799984 45.1378079,5.38633107 C40.0944553,1.77468757 34.1996276,-0.0639673068 27.9773095,0.00169893868 C20.3795316,0.13303143 13.3057384,3.28501121 8.0003935,8.86664208 C2.6295505,14.3169404 -0.186867167,21.5402275 0.00962708898,29.1575119 C0.206121345,36.9061289 3.41552753,44.1294159 9.11386095,49.3827155 C14.4192059,54.3076839 21.2965048,57 28.5012942,57 C29.0252789,57 29.4837655,57 30.0077502,56.9343338 C44.2863328,56.2120051 56.1414862,44.3920809 56.9929613,30.0768394 L56.9929613,29.7485081 C57.1239575,26.2025309 55.4210073,23.0505511 52.3425973,21.3432287 Z M28.5012942,32.9004879 C27.3878268,32.9004879 26.4708536,31.9811605 26.4708536,30.8648343 C26.4708536,29.7485081 27.3878268,28.8291807 28.5012942,28.8291807 C29.6147617,28.8291807 30.5317349,29.7485081 30.5317349,30.8648343 C30.5972329,31.9811605 29.6802597,32.9004879 28.5012942,32.9004879 Z M24.9643976,9.78596951 C24.9643976,9.52330453 24.8988995,9.26063955 24.8988995,8.86664208 C24.8988995,8.66964334 24.8988995,8.53831085 24.8988995,8.40697836 C24.8988995,8.14431338 25.0953938,7.94731464 25.3573861,7.94731464 L31.5142061,7.94731464 C31.7761985,7.94731464 31.9726927,8.14431338 31.9726927,8.40697836 C31.9726927,8.53831085 31.9726927,8.73530959 31.9726927,8.86664208 C31.9726927,9.26063955 31.9726927,9.52330453 31.9726927,9.78596951 C31.9726927,9.98296825 31.8416966,10.1143007 31.7107004,10.2456332 L30.2042444,11.1649607 L26.7328459,11.1649607 L25.2263899,10.2456332 C25.0953938,10.1143007 25.0298957,9.98296825 24.9643976,9.78596951 Z M27.2568306,12.4782856 L29.8112559,12.4782856 L29.8112559,13.9032856 L27.2568306,13.9032856 L27.2568306,12.4782856 Z M22.7374627,16.7465915 L22.6719646,16.6809253 C22.3444742,16.2212616 21.8859876,15.9585966 21.6894933,15.8272641 L21.5584972,15.7615978 L20.8380182,15.7615978 C20.7070221,15.7615978 20.5760259,15.6302654 20.5760259,15.4989329 C20.5760259,15.3676004 20.7070221,15.2362679 20.8380182,15.2362679 L26.5363516,15.2362679 L30.4662368,15.2362679 L36.2300683,15.2362679 C36.3610644,15.2362679 36.4920606,15.3676004 36.4920606,15.4989329 C36.4920606,15.6302654 36.3610644,15.7615978 36.2300683,15.7615978 L35.5095893,15.7615978 L35.3785932,15.8272641 C35.1166008,15.9585966 34.7236123,16.2869278 34.3961219,16.6809253 L34.3306238,16.7465915 C33.8721372,17.3375877 33.0206621,18.4539139 31.5797042,18.4539139 L25.5538804,18.4539139 C24.0474244,18.5195802 23.1959493,17.3375877 22.7374627,16.7465915 Z M26.798344,26.0711984 C26.798344,25.4802022 26.9948382,24.9548722 27.3223287,24.626541 C27.7808153,24.101211 27.7808153,23.3132161 27.3223287,22.7878861 C26.9948382,22.3938886 26.798344,21.8685587 26.798344,21.3432287 C26.798344,20.8178988 26.9948382,20.2925688 27.2568306,19.9642376 L29.7457578,19.9642376 C30.0732483,20.358235 30.2042444,20.8178988 30.2042444,21.3432287 C30.2042444,21.9342249 30.0077502,22.4595549 29.6802597,22.7878861 C29.2217731,23.3132161 29.2217731,24.101211 29.6802597,24.626541 C30.0077502,25.0205385 30.2042444,25.5458684 30.2042444,26.0711984 C30.2042444,26.6621946 30.0077502,27.2531908 29.6147617,27.6471883 C29.2872712,27.5158558 28.8942827,27.4501895 28.5012942,27.4501895 C28.1083057,27.4501895 27.7808153,27.5158558 27.3878268,27.6471883 C27.0603363,27.2531908 26.798344,26.6621946 26.798344,26.0711984 Z M26.9948382,33.8854816 C27.2568306,34.0168141 27.5188229,34.1481466 27.8463134,34.2138128 L27.8463134,41.8310973 C27.5188229,41.8967635 27.3223287,42.0937623 27.1258344,42.1594285 C26.8638421,42.290761 26.7328459,42.4220935 26.3398574,42.4220935 C25.9468689,42.4220935 25.8158727,42.3564273 25.5538804,42.1594285 C25.3573861,42.028096 25.1608919,41.9624298 24.8988995,41.8310973 C26.4708536,38.81045 26.8638421,35.5271377 26.9948382,33.8854816 Z M37.4090338,47.2813957 C37.7365242,47.4127282 37.8675204,47.7410594 37.8675204,48.0693906 C37.8675204,48.5290543 37.4745319,48.9230518 37.0160453,48.9230518 L19.9865431,48.9230518 C19.5280565,48.9230518 19.135068,48.5290543 19.135068,48.0693906 C19.135068,47.7410594 19.3315623,47.4127282 19.5935546,47.2813957 C21.6894933,46.2307357 23.1304512,44.7204121 24.2439187,43.0130897 C24.505911,43.0130897 24.6369072,43.1444222 24.8334014,43.2757547 C25.1608919,43.4727534 25.5538804,43.7354184 26.3398574,43.7354184 C27.1258344,43.7354184 27.5188229,43.4727534 27.8463134,43.2757547 C27.8463134,43.2757547 27.8463134,43.2757547 27.8463134,43.2757547 L27.8463134,45.771072 C27.8463134,46.1650695 28.1738038,46.4277345 28.5012942,46.4277345 C28.8942827,46.4277345 29.1562751,46.0994033 29.1562751,45.771072 L29.1562751,43.2100885 C29.2217731,43.2100885 29.2217731,43.2757547 29.2872712,43.2757547 C29.6147617,43.4727534 30.0077502,43.7354184 30.7937272,43.7354184 C31.5797042,43.7354184 31.9726927,43.4727534 32.3001832,43.2757547 C32.4966774,43.1444222 32.6276736,43.078756 32.8241678,43.078756 C33.8721372,44.7860783 35.3785932,46.296402 37.4090338,47.2813957 Z M32.1036889,41.8967635 C31.9071946,41.9624298 31.7107004,42.0937623 31.5797042,42.1594285 C31.3177119,42.290761 31.1867157,42.4220935 30.7937272,42.4220935 C30.4007387,42.4220935 30.2697425,42.3564273 30.0077502,42.1594285 C29.8112559,42.028096 29.5492636,41.8967635 29.1562751,41.7654311 L29.1562751,34.2138128 C29.4837655,34.1481466 29.7457578,34.0168141 30.0077502,33.8854816 C30.1387463,35.5271377 30.5317349,38.81045 32.1036889,41.8967635 Z M45.989283,6.37132475 C46.1857772,6.37132475 46.3167734,6.43699099 46.4477696,6.56832348 L51.8186126,11.9529556 C51.9496088,12.0842881 52.0151068,12.2812868 52.0151068,12.4126193 C52.0151068,12.6096181 51.9496088,12.7409506 51.8186126,12.872283 C51.5566202,13.134948 51.0981336,13.134948 50.8361413,12.872283 L45.5307964,7.55331717 C45.3998002,7.42198468 45.3343021,7.22498594 45.3343021,7.09365345 C45.3343021,6.89665471 45.3998002,6.76532222 45.5307964,6.63398973 C45.6617926,6.43699099 45.7927887,6.37132475 45.989283,6.37132475 Z" id="Shape"></path>
        </g>
    </g>
</svg>